<?xml version="1.0" standalone="no"?><!DOCTYPE svg PUBLIC "-//W3C//DTD SVG 1.1//EN" "http://www.w3.org/Graphics/SVG/1.1/DTD/svg11.dtd"><svg t="1538011552770" class="icon" style="" viewBox="0 0 1024 1024" version="1.1" xmlns="http://www.w3.org/2000/svg" p-id="748" xmlns:xlink="http://www.w3.org/1999/xlink" width="150" height="150"><defs><style type="text/css"></style></defs><path d="M920 464L920 176.00508781C920 96.54353563 855.68931219 32 776.35808 32L199.64192 32C120.94044781 32 56 96.4736 56 176.00585562L56 799.99414438C56 879.86993562 120.36089563 944 199.75404781 944L440 944 440 872 199.75404781 872C160.00836781 872 128 839.98841563 128 799.99414438L128 176.00585562C128 136.46345562 160.47948781 104 199.64192 104L776.35808 104C815.8544 104 848 136.23771219 848 176.00508781L848 464 920 464ZM248 224L728 224 728 272 248 272 248 224ZM248 368L584 368 584 416 248 416 248 368ZM577.87366438 839.57465562L531.91553563 896.00100781 584.00076781 948.08556781 640.42174438 902.12801562C653.69892781 909.53249563 668.25243219 915.66008 682.80540781 920.00072L690.46496 992 765.52952 992 773.18912 920.00072C787.74262437 915.66008 801.53043219 909.53249563 815.57220781 902.12801562L871.74363219 948.08556781 924.34006437 896.00100781 878.12691219 839.57465562C885.27584 826.29876781 891.65859219 812.00048 895.99817562 797.44716781L968 789.53206438 968 714.46846437 895.99817562 706.80896C891.65859219 692.25564781 885.27584 678.72363219 878.12691219 664.68147219L924.34006437 608.25569563 871.74363219 555.65993562 815.57220781 601.87251219C801.27483219 594.72310437 787.74262437 588.34044781 773.18912 584.00033563L765.53009563 512 690.46553563 512 682.80593562 584.00033563C667.74180781 588.34044781 653.69950438 594.72363219 640.42232 601.87251219L584.00129562 555.65993562 531.91611219 608.25569563 577.87419219 664.68147219C570.72468781 678.72416 564.59700781 692.25564781 560.25684781 706.80896L488 714.46846437 488 789.53206438 560.25632 797.44716781C564.34140781 811.99995219 570.46966437 826.29876781 577.87366438 839.57465562ZM658.80531219 752.00028781C658.80531219 732.34064 665.44419219 716.00091219 678.97587219 702.46884781 692.50808 688.93683219 708.84852781 682.29804781 728.50846438 682.29804781 748.16777562 682.29804781 764.5088 688.93683219 778.04100781 702.46884781 791.57379219 716.00091219 798.21156781 732.34064 798.21156781 752.00028781 798.21156781 771.66046438 791.57326438 788.25632 778.04100781 801.78780781 764.5088 815.31934438 748.16777562 821.95755219 728.50846438 821.95755219 708.84852781 821.95755219 692.44390438 815.38294438 678.97587219 801.78780781 665.38001562 788.06436781 658.80531219 771.40486438 658.80531219 752.00028781L658.80531219 752.00028781Z" p-id="749"></path></svg>