<?xml version="1.0" standalone="no"?><!DOCTYPE svg PUBLIC "-//W3C//DTD SVG 1.1//EN" "http://www.w3.org/Graphics/SVG/1.1/DTD/svg11.dtd"><svg t="1644239375134" class="icon" viewBox="0 0 1024 1024" version="1.1" xmlns="http://www.w3.org/2000/svg" p-id="1498" xmlns:xlink="http://www.w3.org/1999/xlink" width="78" height="78"><defs><style type="text/css"></style></defs><path d="M870.240093 845.924561V267.982758A114.410977 114.410977 0 0 0 755.829116 153.571781H114.410977A114.410977 114.410977 0 0 0 0 267.982758v641.41814a97.262128 97.262128 0 0 0 1.279765 13.565507A114.155024 114.155024 0 0 0 114.410977 1023.811875h641.418139a62.96443 62.96443 0 0 0 9.726213 0A113.899071 113.899071 0 0 0 870.240093 909.400898v-9.214307a294.601867 294.601867 0 0 0 0-54.26203zM114.410977 217.560023h641.418139a51.190594 51.190594 0 0 1 51.190594 51.190594V435.120047A303.304268 303.304268 0 0 0 460.715344 546.715541a234.196966 234.196966 0 0 1-153.571782 95.72641 228.821954 228.821954 0 0 1-243.15532-110.827635v-263.631558A51.190594 51.190594 0 0 1 114.410977 217.560023zM230.357672 353.982956a63.988242 63.988242 0 1 0 63.988242 63.988242 63.988242 63.988242 0 0 0-63.988242-63.988242z m793.454203-239.571979v641.418139A114.155024 114.155024 0 0 1 921.430687 870.240093v-66.035866L918.871157 255.952969c0-96.494269-43.767958-153.571781-153.571781-153.571782H154.851546a114.155024 114.155024 0 0 1 113.131212-102.381187h641.41814A114.410977 114.410977 0 0 1 1023.811875 114.410977z" p-id="1499" fill="#757576"></path></svg>