<?xml version="1.0" standalone="no"?><!DOCTYPE svg PUBLIC "-//W3C//DTD SVG 1.1//EN" "http://www.w3.org/Graphics/SVG/1.1/DTD/svg11.dtd"><svg t="1522125018266" class="icon" style="" viewBox="0 0 1024 1024" version="1.1" xmlns="http://www.w3.org/2000/svg" p-id="1701" xmlns:xlink="http://www.w3.org/1999/xlink" width="200" height="200"><defs><style type="text/css"></style></defs><path d="M862.1 239.4c-65.8-0.1-119.4-53.7-119.5-119.5 0-21.7-16.2-40.1-37.6-42.9-1-0.1-98.7-13.1-185.5-13.1S335 76.9 334.1 77c-21.5 2.8-37.7 21.2-37.7 42.8-0.1 65.8-53.7 119.4-119.5 119.5-23.8 0-43.2 19.4-43.2 43.2v190.1c0 78.9 0 318.9 368.2 483.2 5.5 2.5 11.5 3.7 17.6 3.7s12-1.2 17.6-3.7c368.1-164.3 368.1-404.3 368.1-483.2v-190c0.1-23.8-19.3-43.2-43.1-43.2z m-43.2 81.8v151.5c0 70.2 0 255.7-299.3 396.1-299.3-140.5-299.3-326-299.3-396.1V321.2c80.3-17.3 143.3-81.6 159-162.3 34.9-3.6 90.5-8.5 140.3-8.5 51.2 0 108.9 5.2 140.4 8.5 15.6 80.7 78.6 144.9 158.9 162.3z" p-id="1702"></path><path d="M475 587.4L354.4 466.8a42.922 42.922 0 0 0-60 0c-17.2 16.6-17.6 44-0.9 61.3l151.1 151c8.2 8.1 19 12.6 30.5 12.6 11.4 0 22.6-4.7 30.5-12.7l240.1-240.2c16.3-16.8 16.3-43.2 0-60.1-8-8.3-18.8-13-30.3-13.2-11.8-0.2-22.5 4.1-31 12.3L475 587.4z" p-id="1703"></path></svg>