<?xml version="1.0" standalone="no"?><!DOCTYPE svg PUBLIC "-//W3C//DTD SVG 1.1//EN" "http://www.w3.org/Graphics/SVG/1.1/DTD/svg11.dtd"><svg t="1522125012106" class="icon" style="" viewBox="0 0 1024 1024" version="1.1" xmlns="http://www.w3.org/2000/svg" p-id="1592" xmlns:xlink="http://www.w3.org/1999/xlink" width="200" height="200"><defs><style type="text/css"></style></defs><path d="M840.1 301.5c2.5-0.9 5-2 7.5-3.3h0.1c12-6.3 21.5-16 27.6-28.1 15.8-31.7 3.2-70.2-28-85.9-1.9-1-3.8-1.9-5.7-2.6L540.1 69c-18.1-6.8-38-6.8-56.1 0L184.2 181c-2.5 0.9-5 1.9-7.7 3.3-11.7 6.1-21 15.5-27.1 27.1-8 15.2-9.5 32.6-4.4 49s16.3 29.8 31.6 37.8c2.4 1.3 4.9 2.3 7.3 3.2L484 413.5c9 3.4 18.4 5.1 28.1 5.1 9.6 0 18.9-1.7 28-5l300-112.1z m-85.8-60.2L513.1 332l-243.2-90.8L511 150.5l243.3 90.8zM900.1 348.2c-9.7-1.2-20 0.4-29.4 4.5L577.3 459.8l-2.6 1c-23.2 10.3-38.2 33.3-38.2 58.7v372c0 36.6 29.8 66.3 66.4 66.4 8.1 0 15.9-1.5 23.4-4.3l292.2-107.4 2.6-1c23.2-10.3 38.2-33.3 38.2-58.8V412.1c-0.2-33.6-26.2-61.6-59.2-63.9zM872.8 444v326.7l-216.9 79.2-32.8 12.4V535.2L872.8 444zM449.3 460.8l-295.5-108c-23.8-10-52-4.3-70.2 13.9-12.1 12.1-18.8 28.3-18.8 45.4v374.2c0 25.4 15 48.5 38.4 58.9l295.3 107.9c7.8 3.3 16.1 4.9 24.7 4.9 35.3-0.1 64.2-28.9 64.2-64.3V519.6c0.1-25.4-14.9-48.5-38.1-58.8zM401 535.2v326.7l-249.7-91.2V444L401 535.2z" p-id="1593"></path></svg>