<?xml version="1.0" standalone="no"?><!DOCTYPE svg PUBLIC "-//W3C//DTD SVG 1.1//EN" "http://www.w3.org/Graphics/SVG/1.1/DTD/svg11.dtd"><svg t="1522125022937" class="icon" style="" viewBox="0 0 1024 1024" version="1.1" xmlns="http://www.w3.org/2000/svg" p-id="1811" xmlns:xlink="http://www.w3.org/1999/xlink" width="200" height="200"><defs><style type="text/css"></style></defs><path d="M860.7 959.6H167.9c-40.6 0-68.9-31.7-68.9-77 0-28.9 6.5-278.2 222.8-407.8-37.4-44.3-57.8-100.6-57.8-160.5 0-67 25.5-129.4 71.8-175.7 48.1-48 110.5-74.5 175.7-74.5 66.7 0 128.6 26.8 174 75.5 45.3 45.3 70.8 107.7 70.8 174.7 0 57.8-20.6 114.1-58.5 160.6 223.7 138.6 226.3 396.5 226.3 407.7 0.1 53.1-31.7 77-63.4 77z m-677.9-83.7h657.6c-1.6-39.7-19-238.6-204.8-340.6-1.3-0.4-2.8-0.7-4.2-1-49.8-11.8-49.6-43.8-47.2-57 3.2-17.7 14.5-26 28.7-36.6 4.5-3.4 9.7-7 12.7-9.9 30.1-32.3 47.3-74.1 47.3-116.5 0-44.7-16.8-86.1-47.3-116.6-30.5-32.6-70.6-50-113.8-50-43.5 0-83.8 17.3-116.6 50-30.5 30.5-47.3 71.9-47.3 116.5 0 44.1 16.3 84.9 46.1 115.3 1.5 1 3.3 1.9 5.1 2.9 11.6 6.4 42.4 23.4 37.8 57.8-4.5 33.6-37.3 41.5-48 44.1l-3.6 0.9-0.3 0.2c-184.6 95.8-200.9 295.8-202.2 340.5z" p-id="1812"></path><path d="M511.6 837.7l-64.5-60.5 12.5-226.9c-0.1-27.3 23.3-50.7 52.1-50.7 28.7 0 52.1 23.4 52.1 52.1l12.4 225.5-64.6 60.5z m-11-82l11 10.3 11-10.3-11.1-202.5-10.9 202.5z" p-id="1813"></path></svg>