<?xml version="1.0" standalone="no"?><!DOCTYPE svg PUBLIC "-//W3C//DTD SVG 1.1//EN" "http://www.w3.org/Graphics/SVG/1.1/DTD/svg11.dtd"><svg t="1642157384617" class="icon" viewBox="0 0 1024 1024" version="1.1" xmlns="http://www.w3.org/2000/svg" p-id="6641" xmlns:xlink="http://www.w3.org/1999/xlink" width="78" height="78"><defs><style type="text/css"></style></defs><path d="M974.628571 252.342857c0-14.628571-9.142857-27.428571-23.771428-32.914286-431.542857-171.885714-431.542857-171.885714-438.857143-171.885714-5.485714 0-9.142857 0-12.8 1.828572L71.314286 221.257143c-12.8 5.485714-21.942857 18.285714-23.771429 32.914286 0 14.628571-10.971429 358.4 62.171429 499.2 74.971429 146.285714 374.857143 252.342857 387.657143 256 3.657143 1.828571 7.314286 1.828571 12.8 1.828571 3.657143 0 7.314286 0 12.8-1.828571 12.8-3.657143 312.685714-111.542857 387.657142-256 74.971429-142.628571 64-486.4 64-501.028572zM694.857143 438.857143h-146.285714v292.571428h-73.142858V438.857143h-146.285714v-73.142857h365.714286v73.142857z" fill="#8699a3" p-id="6642"></path></svg>