<?xml version="1.0" standalone="no"?><!DOCTYPE svg PUBLIC "-//W3C//DTD SVG 1.1//EN" "http://www.w3.org/Graphics/SVG/1.1/DTD/svg11.dtd"><svg t="1522125028408" class="icon" style="" viewBox="0 0 1024 1024" version="1.1" xmlns="http://www.w3.org/2000/svg" p-id="1921" xmlns:xlink="http://www.w3.org/1999/xlink" width="200" height="200"><defs><style type="text/css"></style></defs><path d="M471.1 188.9v651.4h81.4V188.9h-81.4z m-40.7-81.4h162.9c22.5 0 40.7 18.2 40.7 40.7V881c0 22.5-18.2 40.7-40.7 40.7H430.4c-22.5 0-40.7-18.2-40.7-40.7V148.2c0-22.5 18.2-40.7 40.7-40.7z m366.4 285v447.8h81.4V392.5h-81.4z m-40.7-81.4H919c22.5 0 40.7 18.2 40.7 40.7V881c0 22.5-18.2 40.7-40.7 40.7H756.1c-22.5 0-40.7-18.2-40.7-40.7V351.8c0-22.5 18.2-40.7 40.7-40.7z m-610.7 285v244.3h81.4V596.1h-81.4z m-40.7-81.5h162.9c22.5 0 40.7 18.2 40.7 40.7V881c0 22.5-18.2 40.7-40.7 40.7H104.7C82.2 921.8 64 903.5 64 881V555.3c0-22.4 18.2-40.7 40.7-40.7z" p-id="1922"></path></svg>